# xmcd
#
# Track frame offsets: 
#        150
#        13160
#        24945
#        36242
#        48095
#        58997
#        70855
#        80945
#        91242
#        101752
#        112832
#        123447
#        135287
#        146680
#        157095
#        167950
#        180685
#        191095
#        202492
#        213120
#        223427
#
# Disc length: 3119 seconds
#
# Revision: 17
# Processed by: cddbd v1.5.2PL0 Copyright (c) Steve Scherf et al.
# Submitted via: ExactAudioCopyFreeDBPlugin 1.0
#
DISCID=390c2c15,3b0c2c15,400c2d15
DTITLE=Robert Johnson - Robert Johnson:  The Complete Recordings [Root
DTITLE=s n' Blues box set]
DYEAR=1990
DGENRE=Blues
TTITLE0=Preaching Blues (Up Jumped the Devil)
TTITLE1=If I Had Possession Over Judgment Day
TTITLE2=Stones in My Passway
TTITLE3=I'm a Steady Rollin' Man
TTITLE4=From Four Till Late
TTITLE5=Hellhound on My Trail
TTITLE6=Little Queen of Spades (take 1)
TTITLE7=Little Queen of Spades (take 2)
TTITLE8=Malted Milk
TTITLE9=Drunken Hearted Man (take 1)
TTITLE10=Drunken Hearted Man (take 2)
TTITLE11=Me and the Devil Blues (take 1)
TTITLE12=Me and the Devil Blues (take 2)
TTITLE13=Stop Breakin' Down Blues (take 1)
TTITLE14=Stop Breakin' Down Blues (take 2)
TTITLE15=Traveling Riverside Blues
TTITLE16=Honeymoon Blues
TTITLE17=Love in Vain (take 1)
TTITLE18=Love in Vain (take 4)
TTITLE19=Milkcow's Calf Blues (take 2)
TTITLE20=Milkcow's Calf Blues (take 3)
EXTD=
EXTT0=
EXTT1=
EXTT2=
EXTT3=
EXTT4=
EXTT5=
EXTT6=
EXTT7=
EXTT8=
EXTT9=
EXTT10=
EXTT11=
EXTT12=
EXTT13=
EXTT14=
EXTT15=
EXTT16=
EXTT17=
EXTT18=
EXTT19=
EXTT20=
PLAYORDER=
